[img]http://img29.imageshack.us/img29/5746/finalacd.jpg[/img]
[code]
inal Destination 5 (2011)
Horror | Thriller 
http://www.imdb.com/title/tt1622979/

plot:
Survivors of a suspension-bridge collapse learn there's no way you can cheat Death. 
SCR0N

General
Complete name : Final Destination 5 2011 CAM AC3 XViD -SCR0N
Format : AVI
Format/Info : Audio Video Interleave
Format profile : OpenDML
File size : 1.29 GiB
Duration : 1h 26mn
Overall bit rate : 2 143 Kbps
Writing application : Lavf52.57.1
Video #0
ID : 0
Format : MPEG-4 Visual
Codec ID : FMP4
Duration : 1h 26mn
Bit rate : 2 002 Kbps
Width : 720 pixels
Height : 304 pixels
Display aspect ratio : 2.35:1
Frame rate : 29.970 fps
Color space : YUV
Chroma subsampling : 4:2:0
Compression mode : Lossy
Bits/(Pixel*Frame) : 0.305
Stream size : 1.21 GiB (93%)

Audio #1
ID : 1
Format : AC-3
Format/Info : Audio Coding 3
Codec ID : 2000
Duration : 1h 26mn
Bit rate mode : Constant
Bit rate : 128 Kbps
Channel(s) : 2 channels
Sampling rate : 44.1 KHz
Bit depth : 16 bits
Compression mode : Lossy
Stream size : 79.0 MiB (6%)
Alignment : Split accross interleaves
Interleave, duration : 35 ms (1.04 video frame)
Interleave, preload duration : 0 ms

Source:v/a......IMAGiNE(many thanks!!!)
Thanks to all p2p groups.....
SCR0N is looking for silver supplier,cammers,syncers,Audio and anymore stuff.....If yall got anything to offer...holler us at scron@hushmail.com
[/code]
Screens:
[img]http://img51.imageshack.us/img51/1557/20677045.jpg[/img]
[img]http://img62.imageshack.us/img62/1880/60225460.jpg[/img]
[img]http://img35.imageshack.us/img35/8817/86640619.jpg[/img]